<svg width="208" height="371" viewBox="0 0 208 371" fill="none" xmlns="http://www.w3.org/2000/svg">
<g clip-path="url(#clip0)">
<path d="M14.4252 24.6722V309.683L26.64 321.898H104V331.398L90.4282 344.97L104 358.542V370.757H51.0695L42.7906 362.478L34.7832 370.757H18.4968L6.28204 358.542V16.529L22.5684 0.242676H104V8.38585H30.7116L14.4252 24.6722Z" fill="#000080"/>
<path d="M104 16.5291V285.254H14.4252V24.6722L22.5683 16.5291H104Z" fill="#FFBB33"/>
<path d="M193.575 24.6722V285.254H104V16.5291H185.432L193.575 24.6722Z" fill="#FEEF7E"/>
<path d="M104 331.398V358.542L90.4282 344.97L104 331.398Z" fill="#DD5F00"/>
<path d="M117.572 344.97L104 358.542V331.398L117.572 344.97Z" fill="#FFBB33"/>
<path d="M201.718 16.529V358.542L189.503 370.757H104V358.542L117.572 344.97L104 331.398V321.898H181.36L193.575 309.683V24.6722L177.289 8.38585H104V0.242676H185.432L201.718 16.529Z" fill="#0000FF"/>
<path d="M0.85321 76.2457L6.28199 81.6745V49.1018L0.85321 54.5306V76.2457Z" fill="#6699FF"/>
<path d="M207.147 54.5306L201.718 49.1018V97.9609L207.147 92.5321V54.5306Z" fill="#0000B2"/>
<path d="M0.85321 125.105L6.28199 130.534V97.9609L0.85321 103.39V125.105Z" fill="#6699FF"/>
<path d="M185.432 16.5292H22.5684L30.7115 8.38599H177.289L185.432 16.5292Z" fill="#DD5F00"/>
<path d="M193.575 285.254V309.683L181.36 321.898H104V285.254H193.575Z" fill="#FFBB33"/>
<path d="M104 285.254V321.898H26.6399L14.4252 309.683V285.254H104Z" fill="#DD5F00"/>
<path d="M104 32.8154H22.5684V203.822H104V32.8154Z" fill="#DD5F00"/>
<path d="M185.432 32.8154H104V203.822H185.432V32.8154Z" fill="#FFBB33"/>
<path d="M55.1411 211.965H22.5684L34.7831 224.18H75.499L87.7138 211.965H55.1411Z" fill="#FEEF7E"/>
<path d="M161.096 220.094L152.939 228.251L161.096 236.409L169.253 228.251L161.096 220.094Z" fill="#000080"/>
<path d="M169.239 211.951L161.082 220.108L169.239 228.265L177.396 220.108L169.239 211.951Z" fill="#000080"/>
<path d="M152.953 211.951L144.796 220.108L152.953 228.265L161.11 220.108L152.953 211.951Z" fill="#000080"/>
<path d="M55.14 130.505L38.8256 146.819L55.14 163.134L71.4545 146.819L55.14 130.505Z" fill="#0000FF"/>
<path d="M71.4274 169.892V203.822H38.8547V169.892L46.9979 161.749L55.1411 169.892L63.2843 161.749L71.4274 169.892Z" fill="#0000FF"/>
<path d="M104 140.034V172.607L87.7137 156.32L104 140.034Z" fill="#0000FF"/>
<path d="M104 179.393V203.822H87.7137V179.393L95.8569 171.25L104 179.393Z" fill="#0000FF"/>
<path d="M152.857 123.719L136.543 140.034L152.857 156.348L169.172 140.034L152.857 123.719Z" fill="#6699FF"/>
<path d="M169.146 163.106V203.822H136.573V163.106L144.716 154.963L152.859 163.106L161.002 154.963L169.146 163.106Z" fill="#6699FF"/>
<path d="M120.286 156.32L104 172.607V140.034L120.286 156.32Z" fill="#6699FF"/>
<path d="M120.286 179.393V203.822H104V179.393L112.143 171.25L120.286 179.393Z" fill="#6699FF"/>
<path d="M104 244.538H22.5684V254.038H104V244.538Z" fill="#0000FF"/>
<path d="M185.432 244.538H104V254.038H185.432V244.538Z" fill="#6699FF"/>
<path d="M104 263.539H22.5684V273.039H104V263.539Z" fill="#0000FF"/>
<path d="M152.859 263.539H104V273.039H152.859V263.539Z" fill="#6699FF"/>
</g>
<defs>
<clipPath id="clip0">
<rect width="206.294" height="370.514" fill="white" transform="translate(0.853149 0.242676)"/>
</clipPath>
</defs>
</svg>
