<svg width="274" height="335" viewBox="0 0 274 335" fill="none" xmlns="http://www.w3.org/2000/svg">
<path d="M234.25 155.605L218.69 171.165H249.81L234.25 155.605Z" fill="#FFBB33"/>
<path d="M31.9701 171.165L8.63013 194.505H31.9701V171.165Z" fill="#FEE94E"/>
<path d="M78.6501 0.00561523V31.1255L94.2101 15.5656L78.6501 0.00561523Z" fill="#FEEF7E"/>
<path d="M78.6503 31.1255L63.0903 46.6855L78.6503 62.2454L94.2103 46.6855L78.6503 31.1255Z" fill="#DD5F00"/>
<path d="M187.57 15.5657V46.6856L172.01 31.1256L187.57 15.5657Z" fill="#FEE94E"/>
<path d="M203.13 62.2455L187.57 46.6855V77.8055L203.13 62.2455Z" fill="#FFBB33"/>
<path d="M31.9705 77.8054V101.145H55.3104L31.9705 77.8054Z" fill="#FFBB33"/>
<path d="M156.45 77.8054H94.2099L47.53 124.485V186.725L94.2099 233.405V264.525L104.583 274.898H146.076L156.45 264.525V233.405L203.13 186.725V124.485L156.45 77.8054Z" fill="#FEE94E"/>
<path d="M94.2099 264.525L104.583 274.898H125.33V77.8054H94.2099L47.53 124.485V186.725L94.2099 233.405V264.525Z" fill="#FFBB33"/>
<path d="M156.45 274.901H94.2102V311.208L109.77 326.768H140.89L156.45 311.208V274.901Z" fill="#6699FF"/>
<path d="M125.33 274.901H94.2102V311.208L109.77 326.768H125.33V274.901Z" fill="#0000B2"/>
<path d="M125.33 202.287L156.45 171.167L140.972 155.859L125.33 171.167L109.999 155.859L94.2102 171.167L125.33 202.287Z" fill="#DD5F00"/>
<path d="M125.33 202.282L156.45 171.162L140.973 155.813L125.33 171.162V202.282Z" fill="#FFBB33"/>
<path d="M125.33 274.901V202.288L120.144 197.102V274.901H125.33Z" fill="#DD5F00"/>
<path d="M125.33 274.901V202.288L130.517 197.102V274.901H125.33Z" fill="#FFBB33"/>
<path d="M125.33 282.681H156.45V287.868H125.33V282.681Z" fill="#0000B2"/>
<path d="M125.33 293.049H156.45V298.235H125.33V293.049Z" fill="#0000B2"/>
<path d="M125.33 303.425H156.45V308.612H125.33V303.425Z" fill="#0000B2"/>
<path d="M125.33 313.801H153.857L148.67 318.988H125.33V313.801Z" fill="#0000B2"/>
<path d="M125.33 334.545L117.55 326.765H133.11L125.33 334.545Z" fill="#CCDDFF"/>
<path d="M257.59 116.705H226.47L242.03 101.146L257.59 116.705Z" fill="#DD5F00"/>
<path d="M273.149 101.145H242.03L257.59 116.705L273.149 101.145Z" fill="#FFBB33"/>
<path d="M0.850342 77.8053H31.9703L16.4103 62.2454L0.850342 77.8053Z" fill="#FEEF7E"/>
</svg>
