<svg width="374" height="234" viewBox="0 0 374 234" fill="none" xmlns="http://www.w3.org/2000/svg">
<path d="M55.0801 75.8633L49.9067 70.6899H187V117.25H49.9067L55.0801 112.077V75.8633Z" fill="#FEEF7E"/>
<path d="M88.7065 137.943L83.5332 132.77L78.3599 137.943V174.157L83.5332 179.33L88.7065 174.157V137.943Z" fill="#FEE94E"/>
<path d="M88.7065 137.943L83.5332 132.77H318.92V179.33H83.5332L88.7065 174.157V137.943Z" fill="#FFBB33"/>
<rect x="187" y="132.77" width="131.92" height="46.5601" fill="#FEE94E"/>
<path d="M24.0396 200.023L18.8662 194.85L8.51953 205.197V215.543L18.8662 225.89L24.0396 220.717V200.023Z" fill="#0000FF"/>
<path d="M55.0796 75.8633L49.9063 70.6899L39.5596 81.0366V106.903L49.9063 117.25L55.0796 112.077V75.8633Z" fill="#FEE94E"/>
<path d="M16.2798 233.65H373.24V225.89H18.8665L8.51978 215.543V205.197L18.8665 194.85H373.24V187.09H16.2798L0.759766 202.61V218.13L16.2798 233.65Z" fill="#0000B2"/>
<path d="M16.2798 233.65H187V225.89H18.8665L8.51978 215.543V205.197L18.8665 194.85H187V187.09H16.2798L0.759766 202.61V218.13L16.2798 233.65Z" fill="#000080"/>
<path d="M24.04 200.023L18.8667 194.85H357.721V202.61V218.13V225.89H18.8667L24.04 220.717V200.023Z" fill="#CCDDFF"/>
<path d="M24.04 200.023L18.8667 194.85H187V225.89H18.8667L24.04 220.717V200.023Z" fill="#6699FF"/>
<path d="M70.5996 179.33L78.3596 187.09H326.68V179.33H83.533L78.3596 174.157V137.943L83.533 132.77H326.68V125.01H78.3596L70.5996 132.77V179.33Z" fill="#FFBB33"/>
<path d="M70.5996 179.33L78.3596 187.09H187V179.33H83.533L78.3596 174.157V137.943L83.533 132.77H187V125.01H78.3596L70.5996 132.77V179.33Z" fill="#DD5F00"/>
<path d="M114.573 13.7832L109.4 8.60986L104.227 13.7832V49.9966L109.4 55.1699L114.573 49.9966V13.7832Z" fill="#0000B2"/>
<path d="M114.573 13.7832L109.4 8.60986H264.6V55.1699H109.4L114.573 49.9966V13.7832Z" fill="#6699FF"/>
<rect x="187" y="8.60986" width="77.6001" height="46.5601" fill="#CCDDFF"/>
<path d="M96.4668 55.17L104.227 62.93H272.36V55.17H109.4L104.227 49.9966V13.7832L109.4 8.60987H272.36V0.849854H104.227L96.4668 8.60987V55.17Z" fill="#0000FF"/>
<path d="M96.4668 55.17L104.227 62.93H187V55.17H109.4L104.227 49.9966V13.7832L109.4 8.60987H187V0.849854H104.227L96.4668 8.60987V55.17Z" fill="#000080"/>
<rect x="187" y="166.396" width="131.92" height="5.17334" fill="#FFBB33"/>
<path d="M280.12 156.05H249.08V212.957L264.6 197.437L280.12 212.957V156.05Z" fill="#0000FF"/>
<path d="M280.12 156.05H264.6V197.437L280.12 212.957V156.05Z" fill="#0000FF"/>
<rect x="249.08" y="156.05" width="15.52" height="5.17334" fill="#6699FF"/>
<rect x="264.6" y="156.05" width="15.52" height="5.17334" fill="#6699FF"/>
<path d="M31.7998 109.49L47.3198 125.01H295.64V117.25H49.9065L39.5598 106.903V81.0366L49.9065 70.6899H295.64V62.9299H47.3198L31.7998 78.45V109.49Z" fill="#FEE94E"/>
<path d="M31.7998 109.49L47.3198 125.01H187V117.25H49.9065L39.5598 106.903V81.0366L49.9065 70.6899H187V62.9299H47.3198L31.7998 78.45V109.49Z" fill="#FFBB33"/>
<rect x="187" y="70.6899" width="100.88" height="46.5601" fill="#FFF8C6"/>
<path d="M99.0532 166.396H187V171.57H93.8799L99.0532 166.396Z" fill="#DD5F00"/>
<rect x="187" y="145.704" width="131.92" height="5.17334" fill="#FFBB33"/>
<path d="M155.96 145.704H187V150.877H150.787L155.96 145.704Z" fill="#DD5F00"/>
<rect x="187" y="83.6235" width="100.88" height="5.17334" fill="#FEE94E"/>
<rect x="187" y="16.3699" width="77.6001" height="5.17334" fill="#6699FF"/>
<rect x="187" y="31.8899" width="77.6001" height="5.17334" fill="#6699FF"/>
<path d="M166.307 16.3699H187V21.5432H161.133L166.307 16.3699Z" fill="#0000FF"/>
<path d="M114.573 31.8899H187V37.0632H114.573V31.8899Z" fill="#0000FF"/>
<path d="M75.773 83.6235H187V88.7969H70.5996L75.773 83.6235Z" fill="#FFBB33"/>
<path d="M171.48 31.8899H140.44V166.397L155.96 150.877L171.48 166.397V31.8899Z" fill="#DD5F00"/>
<path d="M171.48 31.8899H155.96V150.877L171.48 166.397V31.8899Z" fill="#DD5F00"/>
<rect x="140.44" y="31.8899" width="31.0401" height="5.17334" fill="#FFBB33"/>
<rect x="187" y="215.544" width="170.72" height="5.17334" fill="#6699FF"/>
<path d="M55.0801 215.544H187V220.717H49.9067L55.0801 215.544Z" fill="#0000FF"/>
</svg>
