<svg width="306" height="290" viewBox="0 0 306 290" fill="none" xmlns="http://www.w3.org/2000/svg">
<path d="M159.593 289.864L146.406 276.677L159.593 263.491L159.593 289.864Z" fill="#FFBB33"/>
<path d="M159.594 289.864L172.781 276.677L159.594 263.491L159.594 289.864Z" fill="#DD5F00"/>
<path d="M159.594 263.491L146.407 276.677L133.22 263.491L159.594 263.491Z" fill="#DD5F00"/>
<path d="M159.594 263.49L146.407 250.304L133.22 263.49L159.594 263.49Z" fill="#FEEF7E"/>
<path d="M185.967 263.491L172.78 276.677L159.594 263.491L185.967 263.491Z" fill="#FFBB33"/>
<path d="M185.967 263.49L172.78 250.304L159.594 263.49L185.967 263.49Z" fill="#FEEF7E"/>
<path d="M159.594 237.117L172.781 250.304L159.594 263.491L159.594 237.117Z" fill="#FFBB33"/>
<path d="M159.593 237.117L146.406 250.304L159.593 263.491L159.593 237.117Z" fill="#FFBB33"/>
<path d="M185.968 160.194L158.495 133.821L133.22 159.095L133.22 168.986L133.22 185.469L145.308 197.557L159.623 211.692L173.88 197.557L185.968 185.469L185.968 168.986L185.968 160.194Z" fill="#DD5F00"/>
<path d="M185.968 185.474L159.612 211.744V186.48L185.968 159.827V185.474Z" fill="#FFBB33"/>
<path d="M112.341 98.6556L161.792 48.1061L178.275 19.5347L138.715 19.5347L80.4729 77.7765L80.4729 98.6556L112.341 98.6556Z" fill="#FEEF7E"/>
<path d="M238.715 106.348L238.715 85.4692L206.847 85.4692L133.22 159.096L159.594 186.568L238.715 106.348Z" fill="#FEEF7E"/>
<path d="M238.715 78.8754L238.715 106.348L225.528 119.535L132.094 26.1556L138.715 19.5347L178.275 19.5347L238.715 78.8754Z" fill="#FFBB33"/>
<path d="M68.0111 27.3607L57.4426 16.7922L68.0111 6.22375V27.3607Z" fill="#FFBB33"/>
<path d="M68.0111 27.3605L78.5796 16.7921L68.0111 6.22363V27.3605Z" fill="#FEEF7E"/>
<path d="M294.623 90.5963L284.054 80.0278L294.623 69.4594V90.5963Z" fill="#FFBB33"/>
<path d="M294.623 90.5964L305.191 80.0279L294.623 69.4595V90.5964Z" fill="#FEEF7E"/>
<path d="M11.3773 125.397L0.808838 114.829L11.3773 104.26V125.397Z" fill="#FFBB33"/>
<path d="M11.3773 125.397L21.9458 114.828L11.3773 104.26V125.397Z" fill="#FEEF7E"/>
<path d="M268.351 21.7727L257.782 11.2042L268.351 0.635742V21.7727Z" fill="#0000FF"/>
<path d="M268.351 21.7727L278.919 11.2042L268.351 0.635742V21.7727Z" fill="#79A3FF"/>
<path d="M252.499 271.401L241.93 260.832L252.499 250.264V271.401Z" fill="#0000FF"/>
<path d="M252.499 271.401L263.067 260.832L252.499 250.264V271.401Z" fill="#79A3FF"/>
<path d="M73.295 180.544L62.7266 169.976L73.295 159.407V180.544Z" fill="#0000FF"/>
<path d="M73.2951 180.544L83.8635 169.976L73.2951 159.407V180.544Z" fill="#79A3FF"/>
</svg>
