<svg width="401" height="257" viewBox="0 0 401 257" fill="none" xmlns="http://www.w3.org/2000/svg">
<path d="M87.9937 36.2501H182.487L199.986 56.2501V216.25L183.987 200.25H87.9937V36.2501Z" fill="#0000B2"/>
<path d="M217.485 36.2501H311.979V200.25H215.985L199.986 216.25V56.2501L217.485 36.2501Z" fill="#0000FF"/>
<path d="M219.985 180.25L199.986 200.25V40.2501L211.986 28.2501H295.98V104.25L287.314 110.917L295.98 119.583V180.25H219.985Z" fill="#FEE94E"/>
<path fill-rule="evenodd" clip-rule="evenodd" d="M199.987 200.25L179.988 180.25H103.993V28.2501H187.988L199.987 40.2501V200.25ZM103.993 136.25L111.992 144.25L103.993 152.25L103.993 136.25Z" fill="#FFBB33"/>
<path d="M199.987 88.25V136.25L159.989 96.25V80.25L167.989 72.25H183.988L199.987 88.25Z" fill="#0000FF"/>
<path d="M239.983 80.25V96.25L199.986 136.25V88.25L215.985 72.25H231.984L239.983 80.25Z" fill="#6699FF"/>
<path d="M311.979 200.25L311.979 180.25L291.98 200.25L311.979 200.25Z" fill="#6699FF"/>
<path d="M311.979 36.2501L291.98 36.2501L311.979 56.2501L311.979 36.2501Z" fill="#6699FF"/>
<path d="M295.98 168.25V180.25H283.981L295.98 168.25Z" fill="#FFBB33"/>
<path d="M283.981 28.25L295.98 28.25L295.98 40.25L283.981 28.25Z" fill="#FFBB33"/>
<path d="M87.9937 36.2501V56.2501L107.992 36.2501H87.9937Z" fill="#6699FF"/>
<path d="M103.994 168.25V180.25H115.992L103.994 168.25Z" fill="#DD5F00"/>
<path d="M115.992 28.25L103.994 28.25L103.994 40.25L115.992 28.25Z" fill="#DD5F00"/>
<path d="M87.9937 200.25L107.992 200.25L87.9937 180.25L87.9937 200.25Z" fill="#6699FF"/>
<path d="M151.989 56.25L143.99 64.25H159.988L151.989 56.25Z" fill="#DD5F00"/>
<path d="M127.991 144.25L119.992 152.25H135.99L127.991 144.25Z" fill="#DD5F00"/>
<path d="M347.977 172.25L339.978 180.25H355.976L347.977 172.25Z" fill="#DD5F00"/>
<path d="M271.981 144.25L263.982 152.25H279.98L271.981 144.25Z" fill="#FFBB33"/>
<path d="M223.984 48.25L215.985 56.25H231.983L223.984 48.25Z" fill="#FFBB33"/>
<path d="M79.9941 0.25L71.9951 8.25H87.9931L79.9941 0.25Z" fill="#FFBB33"/>
<path d="M167.989 120.25L179.988 132.25H119.992V120.25H167.989Z" fill="#0000E6"/>
<path d="M231.985 120.25L219.985 132.25H279.981V120.25H231.985Z" fill="#0000E6"/>
<path d="M331.978 68.25V84.25L359.976 56.25L351.976 48.25L331.978 68.25Z" fill="#FFBB33"/>
<path d="M67.9951 68.25V84.25L39.997 56.25L47.9965 48.25L67.9951 68.25Z" fill="#FFBB33"/>
<path d="M275.981 228.25L259.982 228.25L279.981 248.25L295.98 248.25L275.981 228.25Z" fill="#0000E6"/>
<path d="M123.992 228.25L139.991 228.25L119.992 248.25L103.993 248.25L123.992 228.25Z" fill="#FFBB33"/>
<path d="M239.983 144.25L247.983 152.25H231.984L223.985 144.25H239.983Z" fill="#6699FF"/>
<path d="M239.983 144.25L231.984 152.25H247.982L239.983 144.25Z" fill="#FFBB33"/>
<path d="M231.984 216.25V28.2501H247.982V216.25L239.983 208.25L231.984 216.25Z" fill="#FFBB33"/>
<path d="M271.982 72.25L283.981 84.25H259.983L271.982 72.25Z" fill="#0000FF"/>
<path d="M255.997 96.2495L247.983 104.264L255.997 112.278L264.01 104.264L255.997 96.2495Z" fill="#6699FF"/>
<path d="M8.0135 166.916L0 174.93L8.0135 182.945L16.027 174.93L8.0135 166.916Z" fill="#6699FF"/>
<path d="M391.988 120.25L383.974 128.264L391.988 136.278L400.002 128.264L391.988 120.25Z" fill="#FEE94E"/>
<path d="M351.99 0.249529L343.977 8.26379L351.99 16.2781L360.004 8.26379L351.99 0.249529Z" fill="#6699FF"/>
<path d="M140.005 68.2495L131.991 76.2638L140.005 84.2781L148.019 76.2638L140.005 68.2495Z" fill="#0000E6"/>
<path d="M56.0103 200.249L47.9966 208.264L56.0103 216.278L64.024 208.264L56.0103 200.249Z" fill="#0000E6"/>
<path d="M152.015 104.264L144.002 96.2501L119.991 96.2501L119.991 104.264L135.989 104.264H152.015Z" fill="#0000B2"/>
<path d="M167.989 152.25L175.988 144.25H159.989L151.99 152.25H167.989Z" fill="#0000B2"/>
<path d="M351.976 96.25L343.977 104.25L359.976 104.25L367.975 96.25L351.976 96.25Z" fill="#0000B2"/>
<path d="M39.9972 104.25L31.9977 96.25L47.9966 96.25L55.9961 104.25L39.9972 104.25Z" fill="#0000B2"/>
<path d="M63.9952 144.25L55.9958 152.25L71.9947 152.25L79.9941 144.25L63.9952 144.25Z" fill="#DD5F00"/>
<path d="M335.977 144.25L343.977 152.25L327.978 152.25L319.979 144.25L335.977 144.25Z" fill="#0000FF"/>
<path d="M191.987 160.25L199.986 152.25V168.25L191.987 160.25Z" fill="#0000FF"/>
<path d="M207.986 160.25L199.987 168.25L199.987 152.25L207.986 160.25Z" fill="#6699FF"/>
</svg>
