<svg width="250" height="292" viewBox="0 0 250 292" fill="none" xmlns="http://www.w3.org/2000/svg">
<g clip-path="url(#clip0)">
<path d="M125 90.4119V159.731H118.068L88.03 130.848V120.45L118.068 90.4119H125Z" fill="#FFBB33"/>
<path d="M163.125 121.605V129.693L131.932 159.731H125V90.4119H131.932L163.125 121.605Z" fill="#FEEF7E"/>
<path d="M125 138.935L138.864 125.071L125 111.208V138.935Z" fill="#6699FF"/>
<path d="M111.136 125.071L125 138.935V111.208L111.136 125.071Z" fill="#0000FF"/>
<path d="M125 0.297119V28.0247L97.2725 0.297119H125Z" fill="#000080"/>
<path d="M125 194.39V222.118L97.2725 194.39H125Z" fill="#000080"/>
<path d="M125 222.118V249.846H97.2725L125 222.118Z" fill="#000080"/>
<path d="M27.9534 125.071L0.22583 97.3438V152.799L27.9534 125.071Z" fill="#000080"/>
<path d="M27.9534 125.071L55.681 152.799V97.3438L27.9534 125.071Z" fill="#000080"/>
<path d="M125 28.0247V55.7523H97.2725L125 28.0247Z" fill="#000080"/>
<path d="M34.8856 132.003L7.15824 159.731L90.3408 242.914L118.069 215.186L34.8856 132.003Z" fill="#6699FF"/>
<path d="M90.3401 7.22928L7.15793 90.412L34.8848 118.14L118.068 34.9569L90.3401 7.22928Z" fill="#0000FF"/>
<path d="M7.15798 90.4118L0.226074 97.3438L27.9537 125.071L34.8856 118.139L7.15798 90.4118Z" fill="#6699FF"/>
<path d="M27.953 125.071L0.225342 152.799L7.15724 159.731L34.8849 132.003L27.953 125.071Z" fill="#0000FF"/>
<path d="M242.817 90.5055L215.124 118.199L222.067 125.143L249.761 97.4493L242.817 90.5055Z" fill="#FF0000"/>
<path d="M97.272 0.296857L90.3401 7.22876L118.068 34.9564L125 28.0246L97.272 0.296857Z" fill="#6699FF"/>
<path d="M118.068 215.186L90.3406 242.914L97.2725 249.845L125 222.118L118.068 215.186Z" fill="#0000FF"/>
<path d="M104.204 76.5481H125V55.7524H97.2726L55.6812 97.3439V152.799L97.2726 194.39H125V173.595H104.204L69.545 138.935V111.208L104.204 76.5481Z" fill="#FFBB33"/>
<path d="M118.068 90.4119H125V76.5481H104.204L69.5449 111.208V138.935L104.204 173.595H125V159.731H118.068L88.03 130.848V120.45L118.068 90.4119Z" fill="#0000FF"/>
<path d="M180.455 111.208V138.935L145.796 173.595H125V159.731H131.932L163.125 129.693V121.605L131.932 90.4119H125V76.5481H145.796L180.455 111.208Z" fill="#6699FF"/>
<path d="M194.319 97.3439V152.799L152.728 194.39H125V173.595H145.796L180.455 138.935V111.208L145.796 76.5481H125V55.7524H152.728L194.319 97.3439Z" fill="#FEEF7E"/>
<path d="M152.728 55.7523H125V28.0247L152.728 55.7523Z" fill="#0000FF"/>
<path d="M152.728 0.297049L125 28.0247L131.932 34.9566L159.66 7.22895L152.728 0.297049Z" fill="#000080"/>
<path d="M152.728 0.297119L125 28.0247V0.297119H152.728Z" fill="#0000FF"/>
<path d="M159.659 7.22912L131.916 34.9914L215.116 118.14L242.843 90.4121L159.659 7.22912Z" fill="#6699FF"/>
<path d="M222.047 125.071L194.319 152.799V97.3438L222.047 125.071Z" fill="#000080"/>
<path d="M249.774 97.3438V152.799L222.047 125.071L249.774 97.3438Z" fill="#000080"/>
<path d="M222.047 125.071L215.115 132.003L242.843 159.731L249.775 152.799L222.047 125.071Z" fill="#6699FF"/>
<path d="M215.115 132.003L131.932 215.186L159.66 242.914L242.843 159.731L215.115 132.003Z" fill="#0000FF"/>
<path d="M131.932 215.186L125 222.118L152.727 249.846L159.66 242.913L131.932 215.186Z" fill="#000080"/>
<path d="M152.728 249.846H125V222.118L152.728 249.846Z" fill="#0000FF"/>
<path d="M152.728 194.39L125 222.118V194.39H152.728Z" fill="#6699FF"/>
<path d="M242.843 90.4119L215.114 118.139L222.046 125.071L249.774 97.3437L242.843 90.4119Z" fill="#0000FF"/>
<path d="M55.681 208.254L27.9534 235.982V291.437H48.7491V242.914L69.5448 222.118L55.681 208.254Z" fill="#0000FF"/>
<path d="M194.319 208.254L222.047 235.982V291.437H201.251V242.914L180.455 222.118L194.319 208.254Z" fill="#6699FF"/>
</g>
<defs>
<clipPath id="clip0">
<rect width="249.548" height="291.14" fill="white" transform="translate(0.22583 0.297119)"/>
</clipPath>
</defs>
</svg>
