<svg width="286" height="292" viewBox="0 0 286 292" fill="none" xmlns="http://www.w3.org/2000/svg">
<path d="M273.123 73.1313L260.631 60.6395L273.123 48.1477L273.123 73.1313Z" fill="#FFBB33"/>
<path d="M273.123 73.1313L285.615 60.6395L273.123 48.1477L273.123 73.1313Z" fill="#FEEF7E"/>
<path d="M12.877 291.738L0.385254 279.246L12.877 266.754L12.877 291.738Z" fill="#FFBB33"/>
<path d="M12.8769 291.738L25.3687 279.246L12.8769 266.754L12.8769 291.738Z" fill="#FEEF7E"/>
<path d="M273.123 73.1313L260.631 60.6395L273.123 48.1477L273.123 73.1313Z" fill="#FFBB33"/>
<path d="M202.336 25.246L189.844 12.7542L202.336 0.262451L202.336 25.246Z" fill="#FFBB33"/>
<path d="M273.123 73.1313L285.615 60.6395L273.123 48.1477L273.123 73.1313Z" fill="#FEEF7E"/>
<path d="M202.336 25.246L214.828 12.7542L202.336 0.262451L202.336 25.246Z" fill="#FEEF7E"/>
<path d="M12.877 291.738L0.385254 279.246L12.877 266.754L12.877 291.738Z" fill="#FFBB33"/>
<path d="M12.8769 291.738L25.3687 279.246L12.8769 266.754L12.8769 291.738Z" fill="#FEEF7E"/>
<path d="M42.0474 136.54L147.601 242.093L114.078 136.54H78.0625H42.0474Z" fill="#0000FF"/>
<path d="M253.156 136.54L147.602 242.093L181.126 136.54H217.141H253.156Z" fill="#CCDDFF"/>
<path d="M147.532 242.093L114.008 136.54H183.32L147.532 242.093Z" fill="#79A3FF"/>
<path d="M114.077 136.539H42.0464L76.9911 101.595H148.004L114.077 136.539Z" fill="#79A3FF"/>
<path d="M181.923 136.539H253.954L219.009 101.595H147.996L181.923 136.539Z" fill="#79A3FF"/>
<path d="M183.32 136.539H114.008L147.935 101.595L183.32 136.539Z" fill="#0000FF"/>
</svg>
